<?xml version="1.0" encoding="UTF-8" standalone="no"?>
<!DOCTYPE svg PUBLIC "-//W3C//DTD SVG 1.1//EN"
 "http://www.w3.org/Graphics/SVG/1.1/DTD/svg11.dtd">
<!-- Generated by graphviz version 9.0.0 (20230911.1827)
 -->
<!-- Title: G Pages: 1 -->
<svg width="642pt" height="263pt"
 viewBox="0.00 0.00 642.45 262.63" xmlns="http://www.w3.org/2000/svg" xmlns:xlink="http://www.w3.org/1999/xlink">
<g id="graph0" class="graph" transform="scale(1 1) rotate(0) translate(21.6 241.03)">
<title>G</title>
<polygon fill="#111111" stroke="none" points="-21.6,21.6 -21.6,-241.03 620.85,-241.03 620.85,21.6 -21.6,21.6"/>
<!-- AriaLabelHelper&#45;biKpopzV.js -->
<g id="node1" class="node">
<title>AriaLabelHelper&#45;biKpopzV.js</title>
<path fill="none" stroke="#cfffac" d="M317.33,-116.75C317.33,-116.75 145.42,-116.75 145.42,-116.75 141.46,-116.75 137.5,-112.79 137.5,-108.83 137.5,-108.83 137.5,-100.92 137.5,-100.92 137.5,-96.96 141.46,-93 145.42,-93 145.42,-93 317.33,-93 317.33,-93 321.29,-93 325.25,-96.96 325.25,-100.92 325.25,-100.92 325.25,-108.83 325.25,-108.83 325.25,-112.79 321.29,-116.75 317.33,-116.75"/>
<text text-anchor="middle" x="231.38" y="-99.45" font-family="Arial" font-size="14.00" fill="#cfffac">AriaLabelHelper&#45;biKpopzV.js</text>
</g>
<!-- entry&#45;button.js -->
<g id="node2" class="node">
<title>entry&#45;button.js</title>
<path fill="none" stroke="#c6c5fe" d="M93.58,-145.75C93.58,-145.75 7.92,-145.75 7.92,-145.75 3.96,-145.75 0,-141.79 0,-137.83 0,-137.83 0,-129.92 0,-129.92 0,-125.96 3.96,-122 7.92,-122 7.92,-122 93.58,-122 93.58,-122 97.54,-122 101.5,-125.96 101.5,-129.92 101.5,-129.92 101.5,-137.83 101.5,-137.83 101.5,-141.79 97.54,-145.75 93.58,-145.75"/>
<text text-anchor="middle" x="50.75" y="-128.45" font-family="Arial" font-size="14.00" fill="#c6c5fe">entry&#45;button.js</text>
</g>
<!-- entry&#45;button.js&#45;&gt;AriaLabelHelper&#45;biKpopzV.js -->
<g id="edge1" class="edge">
<title>entry&#45;button.js&#45;&gt;AriaLabelHelper&#45;biKpopzV.js</title>
<path fill="none" stroke="#757575" d="M101.98,-125.72C114.77,-123.64 128.88,-121.35 142.93,-119.07"/>
<polygon fill="#757575" stroke="#757575" points="143.36,-122.55 152.67,-117.49 142.24,-115.64 143.36,-122.55"/>
</g>
<!-- entry&#45;icon&#45;E_lXxuE5.js -->
<g id="node3" class="node">
<title>entry&#45;icon&#45;E_lXxuE5.js</title>
<path fill="none" stroke="#c6c5fe" d="M299.71,-74.75C299.71,-74.75 163.04,-74.75 163.04,-74.75 159.08,-74.75 155.12,-70.79 155.12,-66.83 155.12,-66.83 155.12,-58.92 155.12,-58.92 155.12,-54.96 159.08,-51 163.04,-51 163.04,-51 299.71,-51 299.71,-51 303.67,-51 307.62,-54.96 307.62,-58.92 307.62,-58.92 307.62,-66.83 307.62,-66.83 307.62,-70.79 303.67,-74.75 299.71,-74.75"/>
<text text-anchor="middle" x="231.38" y="-57.45" font-family="Arial" font-size="14.00" fill="#c6c5fe">entry&#45;icon&#45;E_lXxuE5.js</text>
</g>
<!-- entry&#45;button.js&#45;&gt;entry&#45;icon&#45;E_lXxuE5.js -->
<g id="edge2" class="edge">
<title>entry&#45;button.js&#45;&gt;entry&#45;icon&#45;E_lXxuE5.js</title>
<path fill="none" stroke="#757575" d="M69.01,-121.67C85.78,-110.35 112.33,-93.79 137.5,-83.88 142.52,-81.9 147.78,-80.08 153.12,-78.42"/>
<polygon fill="#757575" stroke="#757575" points="154.08,-81.79 162.71,-75.64 152.13,-75.06 154.08,-81.79"/>
</g>
<!-- i18n&#45;defaults&#45;yaMgskEA.js -->
<g id="node4" class="node">
<title>i18n&#45;defaults&#45;yaMgskEA.js</title>
<path fill="none" stroke="#c6c5fe" d="M311.71,-196.75C311.71,-196.75 151.04,-196.75 151.04,-196.75 147.08,-196.75 143.12,-192.79 143.12,-188.83 143.12,-188.83 143.12,-180.92 143.12,-180.92 143.12,-176.96 147.08,-173 151.04,-173 151.04,-173 311.71,-173 311.71,-173 315.67,-173 319.62,-176.96 319.62,-180.92 319.62,-180.92 319.62,-188.83 319.62,-188.83 319.62,-192.79 315.67,-196.75 311.71,-196.75"/>
<text text-anchor="middle" x="231.38" y="-179.45" font-family="Arial" font-size="14.00" fill="#c6c5fe">i18n&#45;defaults&#45;yaMgskEA.js</text>
</g>
<!-- entry&#45;button.js&#45;&gt;i18n&#45;defaults&#45;yaMgskEA.js -->
<g id="edge3" class="edge">
<title>entry&#45;button.js&#45;&gt;i18n&#45;defaults&#45;yaMgskEA.js</title>
<path fill="none" stroke="#757575" d="M93.59,-146.17C107.55,-150.25 123.19,-154.79 137.5,-158.88 149.58,-162.33 162.56,-165.99 174.87,-169.44"/>
<polygon fill="#757575" stroke="#757575" points="173.91,-172.81 184.48,-172.13 175.8,-166.07 173.91,-172.81"/>
</g>
<!-- parameters&#45;bundle.css&#45;7LTf3XmO.js -->
<g id="node5" class="node">
<title>parameters&#45;bundle.css&#45;7LTf3XmO.js</title>
<path fill="none" stroke="#cfffac" d="M591.33,-115.75C591.33,-115.75 369.17,-115.75 369.17,-115.75 365.21,-115.75 361.25,-111.79 361.25,-107.83 361.25,-107.83 361.25,-99.92 361.25,-99.92 361.25,-95.96 365.21,-92 369.17,-92 369.17,-92 591.33,-92 591.33,-92 595.29,-92 599.25,-95.96 599.25,-99.92 599.25,-99.92 599.25,-107.83 599.25,-107.83 599.25,-111.79 595.29,-115.75 591.33,-115.75"/>
<text text-anchor="middle" x="480.25" y="-98.45" font-family="Arial" font-size="14.00" fill="#cfffac">parameters&#45;bundle.css&#45;7LTf3XmO.js</text>
</g>
<!-- entry&#45;button.js&#45;&gt;parameters&#45;bundle.css&#45;7LTf3XmO.js -->
<g id="edge4" class="edge">
<title>entry&#45;button.js&#45;&gt;parameters&#45;bundle.css&#45;7LTf3XmO.js</title>
<path fill="none" stroke="#757575" d="M101.75,-134.1C156.66,-133.95 247.39,-132.55 325.25,-125.88 347.58,-123.96 371.61,-120.97 393.9,-117.81"/>
<polygon fill="#757575" stroke="#757575" points="394.14,-121.32 403.53,-116.42 393.13,-114.39 394.14,-121.32"/>
</g>
<!-- entry&#45;icon&#45;E_lXxuE5.js&#45;&gt;parameters&#45;bundle.css&#45;7LTf3XmO.js -->
<g id="edge5" class="edge">
<title>entry&#45;icon&#45;E_lXxuE5.js&#45;&gt;parameters&#45;bundle.css&#45;7LTf3XmO.js</title>
<path fill="none" stroke="#757575" d="M306.78,-75.23C334.23,-79.79 365.54,-84.99 393.88,-89.7"/>
<polygon fill="#757575" stroke="#757575" points="393.07,-93.11 403.5,-91.3 394.21,-86.2 393.07,-93.11"/>
</g>
<!-- i18n&#45;defaults&#45;yaMgskEA.js&#45;&gt;parameters&#45;bundle.css&#45;7LTf3XmO.js -->
<g id="edge14" class="edge">
<title>i18n&#45;defaults&#45;yaMgskEA.js&#45;&gt;parameters&#45;bundle.css&#45;7LTf3XmO.js</title>
<path fill="none" stroke="#757575" d="M278.86,-172.55C293.75,-168.42 310.25,-163.65 325.25,-158.88 362.96,-146.88 405.26,-131.64 435.97,-120.25"/>
<polygon fill="#757575" stroke="#757575" points="437.16,-123.54 445.31,-116.77 434.72,-116.98 437.16,-123.54"/>
</g>
<!-- entry&#45;icon.js -->
<g id="node6" class="node">
<title>entry&#45;icon.js</title>
<path fill="none" stroke="#c6c5fe" d="M87.21,-23.75C87.21,-23.75 14.29,-23.75 14.29,-23.75 10.33,-23.75 6.38,-19.79 6.38,-15.83 6.38,-15.83 6.38,-7.92 6.38,-7.92 6.38,-3.96 10.33,0 14.29,0 14.29,0 87.21,0 87.21,0 91.17,0 95.12,-3.96 95.12,-7.92 95.12,-7.92 95.12,-15.83 95.12,-15.83 95.12,-19.79 91.17,-23.75 87.21,-23.75"/>
<text text-anchor="middle" x="50.75" y="-6.45" font-family="Arial" font-size="14.00" fill="#c6c5fe">entry&#45;icon.js</text>
</g>
<!-- entry&#45;icon.js&#45;&gt;entry&#45;icon&#45;E_lXxuE5.js -->
<g id="edge6" class="edge">
<title>entry&#45;icon.js&#45;&gt;entry&#45;icon&#45;E_lXxuE5.js</title>
<path fill="none" stroke="#757575" d="M94.99,-24.22C119.47,-31.21 150.32,-40.02 176.38,-47.46"/>
<polygon fill="#757575" stroke="#757575" points="175.19,-50.76 185.77,-50.14 177.11,-44.03 175.19,-50.76"/>
</g>
<!-- entry&#45;icon.js&#45;&gt;parameters&#45;bundle.css&#45;7LTf3XmO.js -->
<g id="edge7" class="edge">
<title>entry&#45;icon.js&#45;&gt;parameters&#45;bundle.css&#45;7LTf3XmO.js</title>
<path fill="none" stroke="#757575" d="M95.23,-8.89C149.9,-6.35 246.19,-5.91 325.25,-26.88 372.29,-39.35 421.78,-67.1 451.58,-85.65"/>
<polygon fill="#757575" stroke="#757575" points="449.67,-88.58 459.99,-90.98 453.42,-82.67 449.67,-88.58"/>
</g>
<!-- entry&#45;input.js -->
<g id="node7" class="node">
<title>entry&#45;input.js</title>
<path fill="none" stroke="#c6c5fe" d="M89.46,-83.75C89.46,-83.75 12.04,-83.75 12.04,-83.75 8.08,-83.75 4.12,-79.79 4.12,-75.83 4.12,-75.83 4.12,-67.92 4.12,-67.92 4.12,-63.96 8.08,-60 12.04,-60 12.04,-60 89.46,-60 89.46,-60 93.42,-60 97.38,-63.96 97.38,-67.92 97.38,-67.92 97.38,-75.83 97.38,-75.83 97.38,-79.79 93.42,-83.75 89.46,-83.75"/>
<text text-anchor="middle" x="50.75" y="-66.45" font-family="Arial" font-size="14.00" fill="#c6c5fe">entry&#45;input.js</text>
</g>
<!-- entry&#45;input.js&#45;&gt;AriaLabelHelper&#45;biKpopzV.js -->
<g id="edge8" class="edge">
<title>entry&#45;input.js&#45;&gt;AriaLabelHelper&#45;biKpopzV.js</title>
<path fill="none" stroke="#757575" d="M97.75,-80.37C114.44,-83.46 133.78,-87.03 152.45,-90.48"/>
<polygon fill="#757575" stroke="#757575" points="151.69,-93.9 162.16,-92.27 152.97,-87.01 151.69,-93.9"/>
</g>
<!-- entry&#45;input.js&#45;&gt;entry&#45;icon&#45;E_lXxuE5.js -->
<g id="edge9" class="edge">
<title>entry&#45;input.js&#45;&gt;entry&#45;icon&#45;E_lXxuE5.js</title>
<path fill="none" stroke="#757575" d="M97.75,-69.56C111.72,-68.85 127.57,-68.06 143.31,-67.26"/>
<polygon fill="#757575" stroke="#757575" points="143.41,-70.76 153.22,-66.76 143.06,-63.77 143.41,-70.76"/>
</g>
<!-- entry&#45;input.js&#45;&gt;i18n&#45;defaults&#45;yaMgskEA.js -->
<g id="edge10" class="edge">
<title>entry&#45;input.js&#45;&gt;i18n&#45;defaults&#45;yaMgskEA.js</title>
<path fill="none" stroke="#757575" d="M71.21,-84.18C102.61,-104.05 164.66,-143.3 201.32,-166.5"/>
<polygon fill="#757575" stroke="#757575" points="199.34,-169.38 209.66,-171.77 203.08,-163.47 199.34,-169.38"/>
</g>
<!-- entry&#45;input.js&#45;&gt;parameters&#45;bundle.css&#45;7LTf3XmO.js -->
<g id="edge11" class="edge">
<title>entry&#45;input.js&#45;&gt;parameters&#45;bundle.css&#45;7LTf3XmO.js</title>
<path fill="none" stroke="#757575" d="M79.31,-59.57C95.82,-52.87 117.44,-45.28 137.5,-41.88 219.77,-27.9 243.33,-26 325.25,-41.88 369.04,-50.36 416.16,-71.24 446.59,-86.43"/>
<polygon fill="#757575" stroke="#757575" points="444.77,-89.44 455.27,-90.85 447.95,-83.2 444.77,-89.44"/>
</g>
<!-- entry&#45;label.js -->
<g id="node8" class="node">
<title>entry&#45;label.js</title>
<path fill="none" stroke="#c6c5fe" d="M89.08,-206.75C89.08,-206.75 12.42,-206.75 12.42,-206.75 8.46,-206.75 4.5,-202.79 4.5,-198.83 4.5,-198.83 4.5,-190.92 4.5,-190.92 4.5,-186.96 8.46,-183 12.42,-183 12.42,-183 89.08,-183 89.08,-183 93.04,-183 97,-186.96 97,-190.92 97,-190.92 97,-198.83 97,-198.83 97,-202.79 93.04,-206.75 89.08,-206.75"/>
<text text-anchor="middle" x="50.75" y="-189.45" font-family="Arial" font-size="14.00" fill="#c6c5fe">entry&#45;label.js</text>
</g>
<!-- entry&#45;label.js&#45;&gt;i18n&#45;defaults&#45;yaMgskEA.js -->
<g id="edge12" class="edge">
<title>entry&#45;label.js&#45;&gt;i18n&#45;defaults&#45;yaMgskEA.js</title>
<path fill="none" stroke="#757575" d="M97.29,-192.33C107.86,-191.73 119.52,-191.08 131.42,-190.41"/>
<polygon fill="#757575" stroke="#757575" points="131.56,-193.91 141.35,-189.86 131.17,-186.92 131.56,-193.91"/>
</g>
<!-- entry&#45;label.js&#45;&gt;parameters&#45;bundle.css&#45;7LTf3XmO.js -->
<g id="edge13" class="edge">
<title>entry&#45;label.js&#45;&gt;parameters&#45;bundle.css&#45;7LTf3XmO.js</title>
<path fill="none" stroke="#757575" d="M97.42,-205.65C152.67,-216.68 247.9,-229.17 325.25,-205.88 378.49,-189.84 430.26,-148.73 458.13,-123.87"/>
<polygon fill="#757575" stroke="#757575" points="460.48,-126.47 465.51,-117.14 455.76,-121.29 460.48,-126.47"/>
</g>
</g>
</svg>
